<?xml version="1.0" encoding="utf-8"?>
<!-- Generator: Adobe Illustrator 27.8.1, SVG Export Plug-In . SVG Version: 6.00 Build 0)  -->
<svg version="1.1" id="Ebene_1" xmlns="http://www.w3.org/2000/svg" xmlns:xlink="http://www.w3.org/1999/xlink" x="0px" y="0px"
	 width="64px" height="64px" viewBox="0 0 64 64" style="enable-background:new 0 0 64 64;" xml:space="preserve">
<path d="M31.7,25.4c3.5-1.6,5.9-5.1,5.9-9.1c0-5.5-4.5-10-10-10s-10,4.5-10,10c0,4,2.5,7.6,5.9,9.1c1.2,0.5,2.7,0.9,4.1,0.9
	S30.3,26,31.7,25.4z M20.9,16.2c0-3.7,3-6.7,6.7-6.7s6.7,3,6.7,6.7s-3,6.8-6.7,6.8C23.9,23,20.9,20,20.9,16.2
	C20.9,16.3,20.9,16.3,20.9,16.2z"/>
<path d="M30.7,39.8H14.4c0.8-6.6,6.4-11.6,13.2-11.6c3.5,0,6.6,1.3,9,3.5c0.7-0.5,1.4-1,2.2-1.4l0.7-0.4c-2.1-2.2-4.8-3.7-7.8-4.5
	c-1.2,0.6-2.6,0.9-4.1,0.9c-1.5,0-2.9-0.4-4.1-0.9c-7.2,1.8-12.5,8.3-12.5,16c0,0.9,0.7,1.6,1.6,1.6l15.8,0.3
	C28.5,43.4,30.5,40.2,30.7,39.8z"/>
<path d="M23.5,25.4c1.3,0.6,2.7,1,4.1,1c1.5,0,2.9-0.4,4.1-1 M49.4,44c-2-1-4.4-0.2-5.4,1.8c-1,2-0.2,4.4,1.9,5.4
	c0.4,0.2,0.8,0.3,1.1,0.3c1.7,0.3,3.5-0.5,4.3-2.2c0.8-1.5,0.4-3.3-0.7-4.5C50.2,44.6,49.9,44.2,49.4,44z M60.5,49.2
	c1.3-0.3,2.4-0.7,3.3-1c0-0.9,0-1.8-0.2-2.7v-0.3l-3.3-0.6c-0.2-0.8-0.4-1.5-0.7-2.2L62,40c-0.5-0.9-1-1.7-1.6-2.5
	c-0.9,0.3-2,0.7-3.2,1.2c-0.5-0.6-1.1-1.1-1.8-1.5l0.8-3.3c-0.8-0.5-1.7-1-2.6-1.3c-0.1,0.1-0.2,0.3-0.3,0.4l-1.9,2.3L50.6,35
	l-1.5-0.3l-1-3.3c-0.9-0.1-1.8,0-2.7,0.2c-0.1,0-0.2,0-0.3,0.1L44.6,35c-0.7,0.2-1.4,0.4-2.1,0.7c-0.1,0-0.1,0-0.2,0.1l-2.5-2.4
	c-0.5,0.3-1,0.6-1.4,1l-1,0.7c0.3,0.9,0.7,1.9,1.2,3.2c-0.6,0.5-1,1.1-1.5,1.6h-0.4l-3-0.7c-0.2,0.2-0.3,0.5-0.4,0.7
	c-0.4,0.6-0.7,1.2-1,1.9l1.1,1l1.4,1.2c-0.2,0.7-0.4,1.5-0.5,2.3c-1.3,0.3-2.4,0.7-3.3,1c-0.1,0.9,0,1.8,0.1,2.7
	c0,0.1,0,0.2,0.1,0.3l3.3,0.6c0.1,0.4,0.3,0.7,0.4,1.1c0.1,0.4,0.2,0.8,0.4,1.1l-1.5,1.5L33,55.4c0.5,0.9,1,1.7,1.6,2.5
	c0.9-0.3,2-0.7,3.2-1.2c0.5,0.6,1.1,1.1,1.8,1.5l-0.8,3.3c0.8,0.5,1.7,1,2.6,1.3l2.2-2.6c0.7,0.2,1.5,0.4,2.3,0.5
	c0.3,1.3,0.7,2.4,1,3.3c0.9,0.1,1.8,0,2.7-0.2c0.1,0,0.2,0,0.3-0.1c0.2-0.9,0.4-2,0.6-3.4c0.8-0.2,1.5-0.4,2.2-0.7l2.5,2.4
	c0.9-0.5,1.7-1,2.5-1.6c-0.3-0.9-0.6-1.9-1.2-3.2c0.6-0.5,1.1-1.1,1.5-1.7l3.3,0.8c0.5-0.8,1-1.7,1.3-2.6L60,51.5
	C60.3,50.8,60.4,50,60.5,49.2L60.5,49.2z M48.7,57c-3,0.4-5.8-0.7-7.8-2.6c-0.8-0.8-1.4-1.6-1.9-2.6c-0.4-0.9-0.8-1.8-0.9-2.8
	c-0.3-2.3,0.3-4.4,1.4-6.2c0.9-1.5,2.3-2.7,3.9-3.4c0.9-0.4,1.8-0.8,2.8-0.9c1.5-0.2,3,0,4.3,0.5c0.9,0.3,1.9,0.8,2.6,1.4
	c1.9,1.5,3.3,3.6,3.7,6.3C57.5,51.6,53.9,56.3,48.7,57z M28.4,49.2H9.7c-3.2,0-5.8-2.6-5.8-5.7V9.8c0-3.2,2.6-5.7,5.8-5.7h33.8
	c3.2,0,5.8,2.6,5.8,5.7v18.4c0,0.2,3,0.4,4.1,0.7V8.2c0-4.5-3.7-8.2-8.2-8.2H8.1C3.5,0-0.2,3.7-0.2,8.2v36.9c0,4.5,3.7,8.2,8.2,8.2
	h21C28.7,52.2,28.5,49.2,28.4,49.2z"/>
</svg>
