<svg xmlns="http://www.w3.org/2000/svg" width="128" height="128"><path d="M63.8 49.5c6.8-3.1 11.6-9.9 11.6-17.8 0-10.8-8.8-19.6-19.6-19.6s-19.6 8.8-19.6 19.6c0 7.9 4.8 14.8 11.6 17.8 2.6-.7 5.2-1.1 8-1.1s5.4.5 8 1.1zM42.6 31.7c0-7.2 5.9-13.1 13.1-13.1s13.1 5.9 13.1 13.1-5.8 13.2-13 13.2a13.19 13.19 0 0 1-13.2-13.2z"/><path d="M61.7 77.6H30c1.6-12.8 12.5-22.7 25.8-22.7 6.8 0 12.9 2.6 17.5 6.9 1.4-1 2.8-2 4.2-2.8l1.4-.7c-4.1-4.2-9.3-7.2-15.2-8.8-2.4 1.1-5.1 1.8-8 1.8s-5.6-.7-8-1.8c-14 3.6-24.4 16.2-24.4 31.2 0 1.8 1.4 3.2 3.2 3.2l30.9.6c.1.1 4-6.1 4.3-6.9z"/><path d="M63.8 49.6c-2.2-2.3-4.8-2.3-7.5-2.3-2.8 0-6.5 0-8.5 2.3 2.5 1.2 5.2 1.9 8 1.9 2.9 0 5.6-.7 8-1.9zm34.3 39.6c-3.9-1.9-8.6-.3-10.5 3.6s-.3 8.6 3.6 10.5c.7.4 1.5.5 2.2.6 3.3.5 6.8-1 8.3-4.2 1.5-3 .8-6.5-1.4-8.8-.6-.7-1.3-1.3-2.2-1.7zm21.6 10.1c2.6-.6 4.7-1.3 6.4-1.9 0-1.7 0-3.5-.3-5.2v-.5l-6.5-1.2c-.3-1.5-.8-2.9-1.4-4.3l4.6-4.8c-.9-1.7-2-3.3-3.1-4.8-1.7.5-3.8 1.3-6.3 2.3-1-1.1-2.2-2.1-3.4-3l1.6-6.5c-1.6-1-3.3-1.9-5.1-2.6-.2.2-.4.5-.6.7l-3.7 4.4-1.4-.3-3-.6-1.9-6.4a22.72 22.72 0 0 0-5.2.3c-.2 0-.3 0-.5.1l-1.2 6.5c-1.4.3-2.7.8-4 1.3-.1 0-.2 0-.3.1l-4.8-4.6c-1 .5-1.9 1.2-2.8 1.9l-1.9 1.3c.5 1.7 1.3 3.8 2.3 6.2-1.1 1-2 2.1-2.9 3.2h-.7l-5.9-1.4c-.3.4-.5 1-.7 1.4-.7 1.2-1.4 2.4-1.9 3.7l2.2 2 2.7 2.3c-.4 1.4-.8 2.9-.9 4.5-2.6.6-4.7 1.3-6.4 1.9-.1 1.7 0 3.5.2 5.2a.9.9 0 0 0 .1.5l6.5 1.2c.2.8.5 1.4.7 2.2.2.7.4 1.5.7 2.1l-2.9 3-1.7 1.8c.9 1.7 1.9 3.3 3.1 4.8 1.7-.5 3.8-1.3 6.3-2.3 1 1.1 2.2 2.1 3.4 3l-1.6 6.5c1.6 1 3.3 1.9 5.1 2.6l4.3-5.1c1.4.4 2.9.8 4.5.9.6 2.6 1.3 4.7 1.9 6.4a22.72 22.72 0 0 0 5.2-.3c.2 0 .3 0 .5-.1.4-1.7.8-3.9 1.1-6.6 1.5-.3 2.9-.8 4.3-1.4l4.8 4.6c1.7-.9 3.3-2 4.8-3.1-.5-1.7-1.2-3.8-2.3-6.3 1.1-1 2.1-2.2 3-3.4l6.5 1.6c1-1.6 1.9-3.3 2.6-5.1l-5.1-4.3c.5-1.4.8-2.9 1-4.4zm-22.9 15.1c-5.8.8-11.3-1.3-15.1-5.1-1.5-1.5-2.7-3.2-3.7-5.1-.8-1.7-1.5-3.5-1.7-5.5-.6-4.4.5-8.6 2.7-12.1 1.8-2.9 4.4-5.2 7.5-6.7 1.7-.8 3.5-1.5 5.5-1.7 2.9-.4 5.8 0 8.4.9 1.8.6 3.6 1.5 5.1 2.7 3.7 2.9 6.4 7.1 7.1 12.2 1.3 9.9-5.8 19.1-15.8 20.4zM49 96H21.1c-6.2 0-11.2-5-11.2-11.2V19.2C9.9 13 14.9 8 21.1 8h65.6c6.2 0 11.2 5 11.2 11.2v29.5c0 .3 5.8.8 8 1.4V16c0-8.8-7.2-16-16-16h-72c-8.8 0-16 7.2-16 16v72c0 8.8 7.2 16 16 16h32.3c-.6-2.2-1-8-1.2-8z"/></svg>