<svg xmlns="http://www.w3.org/2000/svg" width="128" height="128"><path d="M54.6 66.4h.3c.3 0 .6-.1.9-.1.1 0 .3-.1.4-.1.3 0 .5-.1.8-.1l1.2-.3c.1 0 .2-.1.3-.1l1-.3c.1 0 .2-.1.3-.1l1-.3c.1 0 .1 0 .2-.1.4-.1.8-.3 1.2-.5h0c10.1-4.3 17.2-14.3 17.2-26 0-10.2-5.4-19.1-13.5-24.1-.4-.2-.8-.5-1.2-.7l-.1-.1c-1.1-.6-2.2-1.1-3.4-1.5-.1-.1-.3-.1-.4-.2-.5-.2-1-.3-1.5-.5l-.9-.3c-.3-.1-.5-.1-.8-.2-.4-.1-.9-.2-1.3-.3-.3-.1-.6-.1-.9-.2-.2 0-.5-.1-.7-.1-.3 0-.7-.1-1-.1h-.6c-.5 0-1.1 0-1.6-.1h-.1C35.7 10.2 23 22.8 23 38.4c0 14.8 11.4 26.9 25.9 28.1h0c.8.1 1.5.1 2.3.1s1.6 0 2.4-.1c.3-.1.7-.1 1-.1h0z"/><path d="M67.1 62.7l-2.1-.6c-.5-.2-1.1-.3-1.6-.4-.1 0-.3-.1-.4-.1l-3-.6c-.2 0-.4-.1-.6-.1-.4-.1-.8-.1-1.1-.2-.4-.1-.8-.1-1.2-.2l-2.5-.2h-.8c-.8 0-1.6-.1-2.4-.1l-2.4.1h-.8l-2.5.2c-.4 0-.8.1-1.2.2s-.8.1-1.1.2c-.2 0-.4.1-.6.1l-3 .6c-.1 0-.3.1-.4.1l-2 .5-1.7.5C17.7 68.6 4.1 84.1 1 103.3c-.1.4-.1.7-.2 1.1L.5 107v.1c-.1 1.4-.2 2.7-.2 4.1v.2h0v1.1c0 1.8.2 3.6.4 5.3H102c.3-2.1.4-4.2.4-6.4 0-22.8-14.8-42-35.3-48.7h0zm60.9 37.8h0c-.1-21.2-16.3-38.7-37.1-40.6-1.3.2-2.6.3-3.9.3s-2.6-.1-3.9-.3c-1.6.2-3.2.4-4.7.7 2.9 1.6 5.7 3.4 8.3 5.4.5.4 1 .8 1.4 1.2.1.1.3.2.4.3.6.5 1.1 1 1.7 1.5a1.38 1.38 0 0 0 .4.3c.5.4.9.9 1.4 1.3.1.1.3.2.4.4.5.5 1.1 1.1 1.6 1.7l.2.2c.5.5.9 1 1.4 1.6.1.1.2.3.3.4 2.1 2.6 4 5.3 5.6 8.2l.2.3c.4.7.7 1.4 1.1 2.1v.1c.4.7.7 1.5 1.1 2.3l.1.2c.3.7.6 1.4.9 2.2l.1.2.9 2.4h0c.3.8.5 1.6.7 2.4l.1.2c.5 1.6.9 3.3 1.2 5 .4 2.2.7 4.3.9 6.5H128v-6.5h0 0zM75.1 56.9h0c.2.1.4.2.6.4-.1-.2-.4-.3-.6-.4z"/><path d="M87.5 66.6a20.68 20.68 0 0 0 3.5-.3h-.2C101.6 64.5 110 55 110 43.5c0-9.1-5.3-17-13-20.7-3.1-1.5-6.5-2.3-9.9-2.3-2 0-4 .3-5.8.7 1.1 1.9 2 3.9 2.7 5.9h0c.5 1.3.8 2.7 1.1 4.1h0c.2.9.3 1.8.5 2.8v.2c.1.8.2 1.7.2 2.5v.4 1.3V40v.5c0 .4-.1.8-.1 1.2v.5c-.1.5-.1.9-.2 1.4v.2l-.3 1.6c0 .1-.1.3-.1.4-.1.4-.2.8-.3 1.1 0 .2-.1.3-.1.5-.1.4-.2.8-.4 1.3 0 .1-.1.2-.1.3-.2.5-.3 1-.5 1.5 0 .1-.1.3-.1.4-.4.9-.7 1.8-1.2 2.7 0 .1-.1.2-.1.3-.2.5-.5.9-.7 1.4 0 .1-.1.2-.1.3-.2.4-.4.7-.7 1.1-.1.1-.1.2-.2.4-.2.4-.5.7-.7 1.1-.1.1-.1.1-.1.2-.5.7-1.1 1.4-1.6 2.1 3.1 1.6 6.3 3.7 9.3 6.1z"/></svg>